#tb 0: 1/1000
0,          0,          0,        0,     3264, 68d00958a78e6252dd75d632806e2022
0,         33,         33,        0,     3264, f7b6266e74200a669eecd241db787ee2
0,         66,         66,        0,     3264, c8b88d43aee037857310edeb74bc66f4
0,        100,        100,        0,     3264, c6d9a52baf3ca962574bff1364fcb8dc
0,        133,        133,        0,     3264, b384fbf3ceef0affa69f5e81681edc6e
0,        166,        166,        0,     3264, cd473f0c8d1cde98153402123a3ee7cf
0,        200,        200,        0,     3264, c0f320a23c3e39719a3b3590fe3c2ab5
0,        233,        233,        0,     3264, 751207d15a791728c1022f711a25cd68
0,        266,        266,        0,     3264, 7396df89a0d88044cf7527420d193636
0,        300,        300,        0,     3264, b772dd247838b0c3ed12713447894323
